<?xml version="1.0" encoding="UTF-8"?>
<svg enable-background="new 0 0 512 512" version="1.1" viewBox="0 0 512 512" xml:space="preserve" xmlns="http://www.w3.org/2000/svg">
<style type="text/css">
	.st0{fill:#FFFFFF;}
	.st1{fill:#008940;}
	.st2{fill:#133E79;}
</style>
<g transform="matrix(1.8928 0 0 1.8928 -14.067 -13.767)">
	<path class="st0" d="M7.4,207.1h270.5V77.9H7.4L7.4,207.1z"/>
	<path class="st1" d="m236.2 124.9c-13.7 9.4-28.6 17.5-44.7 24.2-7.9 3.3-16.5 5.6-25.5 6.6-6.4 0.8-12.9 1.2-19.6 1.2v50.2h131.5v-111l-41.7 28.8"/>
	<path class="st1" d="m49.1 124.9c13.7 9.4 28.6 17.5 44.7 24.2 7.9 3.3 16.5 5.6 25.5 6.6 6.4 0.8 12.9 1.2 19.6 1.2v50.2h-131.5v-111l41.7 28.8"/>
	<path class="st2" d="m146.4 77.9v71.8c6.3 0 12.5-0.4 18.6-1.1 8.3-1 16.2-3.1 23.5-6.1 15.6-6.4 30-14.3 43.2-23.4l46.1-31.8v-9.3l-131.4-0.1"/>
	<path class="st2" d="m138.9 77.9v71.8c-6.3 0-12.5-0.4-18.6-1.1-8.3-1-16.2-3.1-23.5-6.1-15.6-6.4-30-14.3-43.2-23.4l-46.2-31.8v-9.3l131.5-0.1"/>
</g>
</svg>
