<?xml version="1.0" encoding="utf-8"?>
<!-- Generator: Adobe Illustrator 25.0.1, SVG Export Plug-In . SVG Version: 6.00 Build 0)  -->
<svg version="1.0" id="Camada_1" xmlns="http://www.w3.org/2000/svg" xmlns:xlink="http://www.w3.org/1999/xlink" x="0px" y="0px"
	 viewBox="0 0 512 512" style="enable-background:new 0 0 512 512;" xml:space="preserve">
<style type="text/css">
	.st0{fill:#FFFFFF;}
	.st1{fill:#008940;}
	.st2{fill:#133E79;}
</style>
<g transform="matrix(1.8928 0 0 1.8928 -14.067 -13.767)">
	<path class="st0" d="M7.4,207h270.5V78.1H7.4V207z"/>
	<path class="st1" d="M236.2,125c-13.7,9.4-28.6,17.5-44.7,24.1c-7.9,3.3-16.5,5.6-25.5,6.6c-6.4,0.8-12.9,1.2-19.6,1.2V207h131.6
		V96.2L236.2,125"/>
	<path class="st1" d="M49.1,125c13.7,9.4,28.6,17.5,44.7,24.1c7.9,3.3,16.5,5.6,25.5,6.6c6.4,0.8,12.9,1.2,19.6,1.2V207H7.4V96.2
		L49.1,125"/>
	<path class="st2" d="M146.4,78.1v71.7c6.3,0,12.5-0.4,18.6-1.1c8.3-1,16.2-3.1,23.5-6.1c15.6-6.4,30-14.3,43.2-23.4l46.2-31.8v-9.3
		H146.4"/>
	<path class="st2" d="M139,78.1v71.5c-6.3,0-12.5-0.4-18.6-1.1c-8.3-1-16.2-3.1-23.5-6.1c-15.6-6.4-30-14.3-43.2-23.4L7.4,87.4v-9.3
		H139"/>
</g>
</svg>
